# 3ds Max Wavefront OBJ Exporter v0.97b - (c)2007 guruware
# File Created: 13.12.2012 15:00:25

mtllib sw.mtl

#
# object sw
#

v  0.0000 -0.3000 0.0000
v  0.2598 -0.1500 0.0000
v  0.2598 0.1500 0.0000
v  0.0000 0.3000 0.0000
v  -0.2598 0.1500 0.0000
v  -0.2598 -0.1500 0.0000
v  0.0000 -0.3000 9.3478
v  0.2598 -0.1500 9.3478
v  0.2598 0.1500 9.3478
v  0.0000 0.3000 9.3478
v  -0.2598 0.1500 9.3478
v  -0.2598 -0.1500 9.3478
v  -0.7003 4.6094 9.3478
v  -0.7003 -4.6094 9.3478
v  0.7003 4.6094 9.3478
v  0.7003 -4.6094 9.3478
v  -0.7003 4.6094 9.5678
v  -0.7003 -4.6094 9.5678
v  0.7003 4.6094 9.5678
v  0.7003 -4.6094 9.5678
v  0.3098 4.5431 9.5678
v  0.3098 -4.5431 9.5678
v  0.3098 4.5431 14.1175
v  0.3098 -4.5431 14.1175
v  -0.3098 4.5431 9.5678
v  -0.3098 -4.5431 9.5678
v  -0.3098 4.5431 14.1175
v  -0.3098 -4.5431 14.1175
# 28 vertices

vn 0.0000 -1.0000 0.0000
vn 0.8660 -0.5000 0.0000
vn -0.0000 -1.0000 0.0000
vn 0.0000 -1.0000 0.0000
vn 0.8660 -0.5000 0.0000
vn 0.8660 -0.5000 0.0000
vn 0.8660 -0.5000 0.0000
vn 0.8660 0.5000 0.0000
vn 0.8660 -0.5000 0.0000
vn 0.8660 -0.5000 0.0000
vn 0.8660 0.5000 0.0000
vn 0.8660 0.5000 0.0000
vn 0.8660 0.5000 0.0000
vn 0.0000 1.0000 0.0000
vn 0.8660 0.5000 0.0000
vn 0.8660 0.5000 0.0000
vn -0.0000 1.0000 0.0000
vn 0.0000 1.0000 0.0000
vn -0.0000 1.0000 0.0000
vn -0.8660 0.5000 0.0000
vn 0.0000 1.0000 0.0000
vn -0.0000 1.0000 0.0000
vn -0.8660 0.5000 0.0000
vn -0.8660 0.5000 0.0000
vn -0.8660 0.5000 0.0000
vn -0.8660 -0.5000 0.0000
vn -0.8660 0.5000 0.0000
vn -0.8660 0.5000 0.0000
vn -0.8660 -0.5000 0.0000
vn -0.8660 -0.5000 0.0000
vn -0.8660 -0.5000 0.0000
vn -0.0000 -1.0000 0.0000
vn -0.8660 -0.5000 0.0000
vn -0.8660 -0.5000 0.0000
vn 0.0000 -1.0000 0.0000
vn -0.0000 -1.0000 0.0000
vn 0.0000 0.0000 -1.0000
vn 0.0000 0.0000 -1.0000
vn 0.0000 0.0000 -1.0000
vn 0.0000 0.0000 -1.0000
vn 0.0000 0.0000 -1.0000
vn 0.0000 0.0000 -1.0000
vn 0.0000 0.0000 1.0000
vn 0.0000 0.0000 1.0000
vn 0.0000 0.0000 1.0000
vn 0.0000 0.0000 1.0000
vn 0.0000 0.0000 1.0000
vn 0.0000 0.0000 1.0000
vn -1.0000 0.0000 0.0000
vn -1.0000 0.0000 0.0000
vn -1.0000 0.0000 0.0000
vn -1.0000 0.0000 0.0000
vn -1.0000 0.0000 0.0000
vn -1.0000 0.0000 0.0000
vn 0.0000 -1.0000 0.0000
vn 0.0000 -1.0000 0.0000
vn 0.0000 -1.0000 0.0000
vn 0.0000 -1.0000 0.0000
vn 0.0000 -1.0000 0.0000
vn 0.0000 -1.0000 0.0000
vn 1.0000 -0.0000 0.0000
vn 1.0000 -0.0000 0.0000
vn 1.0000 -0.0000 0.0000
vn 1.0000 -0.0000 0.0000
vn 1.0000 -0.0000 0.0000
vn 1.0000 -0.0000 0.0000
vn 0.0000 1.0000 0.0000
vn 0.0000 1.0000 0.0000
vn 0.0000 1.0000 0.0000
vn 0.0000 1.0000 0.0000
vn 0.0000 1.0000 0.0000
vn 0.0000 1.0000 0.0000
vn 1.0000 -0.0000 0.0000
vn 1.0000 -0.0000 0.0000
vn 1.0000 -0.0000 0.0000
vn 1.0000 -0.0000 0.0000
vn 1.0000 -0.0000 0.0000
vn 1.0000 -0.0000 0.0000
vn -1.0000 0.0000 -0.0000
vn -1.0000 0.0000 0.0000
vn -1.0000 0.0000 -0.0000
vn -1.0000 0.0000 -0.0000
vn -1.0000 0.0000 -0.0000
vn -1.0000 0.0000 -0.0000
vn -0.0000 -1.0000 0.0000
vn -0.0000 -1.0000 0.0000
vn -0.0000 -1.0000 0.0000
vn -0.0000 -1.0000 0.0000
vn -0.0000 -1.0000 0.0000
vn -0.0000 -1.0000 0.0000
vn 0.0000 0.0000 1.0000
vn 0.0000 0.0000 1.0000
vn 0.0000 0.0000 1.0000
vn 0.0000 0.0000 1.0000
vn 0.0000 0.0000 1.0000
vn 0.0000 0.0000 1.0000
vn 0.0000 1.0000 0.0000
vn 0.0000 1.0000 0.0000
vn 0.0000 1.0000 0.0000
vn 0.0000 1.0000 0.0000
vn 0.0000 1.0000 0.0000
vn 0.0000 1.0000 0.0000
# 102 vertex normals

vt 0.7500 0.0000 1.0000
vt 0.9167 0.0000 1.0000
vt 0.0833 0.0000 1.0000
vt 0.2500 0.0000 1.0000
vt 0.4167 0.0000 1.0000
vt 0.5833 0.0000 1.0000
vt 0.7500 1.0000 1.0000
vt 0.9167 1.0000 1.0000
vt 0.0833 1.0000 1.0000
vt 0.2500 1.0000 1.0000
vt 0.4167 1.0000 1.0000
vt 0.5833 1.0000 1.0000
vt -0.0833 0.0000 1.0000
vt -0.0833 1.0000 1.0000
vt -0.0833 0.0000 1.0000
vt 0.0000 0.0000 0.0000
vt 1.0000 0.0000 0.0000
vt 0.0000 1.0000 0.0000
vt 1.0000 1.0000 0.0000
vt 0.0000 0.0000 0.0000
vt 1.0000 0.0000 0.0000
vt 0.0000 1.0000 0.0000
vt 1.0000 1.0000 0.0000
vt 0.0000 0.0000 0.0000
vt 1.0000 0.0000 0.0000
vt 0.0000 1.0000 0.0000
vt 1.0000 1.0000 0.0000
vt 0.6333 0.4000 0.0000
vt 0.0000 0.0000 0.0000
vt 0.0000 0.0000 0.0000
vt 0.0000 0.0000 0.0000
vt 0.0005 0.0005 0.5000
vt 0.9995 0.0005 0.5000
vt 0.0005 0.9995 0.5000
vt 0.9995 0.9995 0.5000
# 35 texture coords

g sw
usemtl Wood_Ashen
s 8
f 1/1/1 8/8/2 7/7/3 
f 1/1/4 2/2/5 8/8/6 
f 2/13/7 9/9/8 8/14/9 
f 2/15/10 3/3/11 9/9/12 
f 3/3/13 10/10/14 9/9/15 
f 3/3/16 4/4/17 10/10/18 
f 4/4/19 11/11/20 10/10/21 
f 4/4/22 5/5/23 11/11/24 
f 5/5/25 12/12/26 11/11/27 
f 5/5/28 6/6/29 12/12/30 
f 6/6/31 7/7/32 12/12/33 
f 6/6/34 1/1/35 7/7/36 
s 2
f 13/25/37 15/27/38 16/26/39 
f 16/26/40 14/24/41 13/25/42 
s 4
f 17/24/43 18/25/44 20/27/45 
f 20/27/46 19/26/47 17/24/48 
s 8
f 13/20/49 14/21/50 18/23/51 
f 18/23/52 17/22/53 13/20/54 
s 16
f 14/16/55 16/17/56 20/19/57 
f 20/19/58 18/18/59 14/16/60 
s 32
f 16/20/61 15/21/62 19/23/63 
f 19/23/64 20/22/65 16/20/66 
s 64
f 15/16/67 13/17/68 17/19/69 
f 17/19/70 19/18/71 15/16/72 
s 2
f 21/28/73 23/30/74 24/31/75 
f 24/31/76 22/29/77 21/28/78 
usemtl 2___Default
s 4
f 25/32/79 26/33/80 28/35/81 
f 28/35/82 27/34/83 25/32/84 
usemtl Wood_Ashen
s 16
f 22/29/85 24/31/86 28/35/87 
f 28/35/88 26/33/89 22/29/90 
s 32
f 24/31/91 23/30/92 27/34/93 
f 27/34/94 28/35/95 24/31/96 
s 64
f 23/30/97 21/28/98 25/32/99 
f 25/32/100 27/34/101 23/30/102 
# 0 polygons - 34 triangles

